M48
; DRILL file {KiCad 9.0.7} date 2026-08-26T13:09:54+0900
; FORMAT={-:-/ absolute / inch / decimal}
; #@! TF.CreationDate,2026-08-26T13:09:54+09:00
; #@! TF.GenerationSoftware,Kicad,Pcbnew,9.0.7
; #@! TF.FileFunction,Plated,1,2,PTH
FMAT,2
INCH
; #@! TA.AperFunction,Plated,PTH,ViaDrill
T1C0.0118
; #@! TA.AperFunction,Plated,PTH,ComponentDrill
T2C0.0315
; #@! TA.AperFunction,Plated,PTH,ComponentDrill
T3C0.0320
; #@! TA.AperFunction,Plated,PTH,ComponentDrill
T4C0.0394
%
G90
G05
T1
X-0.0666Y-2.2127
X-0.0406Y-2.1721
X-0.0154Y-2.2127
X0.1161Y-0.2639
X0.1161Y-0.9135
X0.1161Y-1.0463
X0.1161Y-1.5631
X0.1339Y-1.1242
X0.1421Y-0.2233
X0.1421Y-0.8729
X0.1421Y-1.5225
X0.1673Y-0.2639
X0.1673Y-0.9135
X0.1673Y-1.5631
X0.3045Y-2.1792
X0.3045Y-2.4413
X0.3071Y-2.2304
X0.3248Y-2.3751
X0.4263Y-0.5075
X0.44Y-1.1774
X0.44Y-1.2992
X0.4413Y-1.827
X0.4413Y-1.9488
X0.4413Y-2.1721
X0.4413Y-2.233
X0.4656Y-1.1223
X0.4669Y-0.4669
X0.4669Y-1.7661
X0.4819Y-0.6496
X0.4823Y-0.8729
X0.4898Y-0.2304
X0.4898Y-0.2815
X0.4911Y-1.2992
X0.4911Y-1.5022
X0.4925Y-1.827
X0.4925Y-1.9488
X0.4925Y-2.1721
X0.4925Y-2.233
X0.4951Y-1.1651
X0.5079Y-0.9541
X0.5331Y-0.6496
X0.5335Y-0.9916
X0.5481Y-0.9311
X0.5534Y-1.5834
X0.5963Y-0.88
X0.609Y-2.1721
X0.68Y-2.0503
X0.68Y-2.103
X0.7498Y-0.229
X0.7511Y-0.2815
X0.7511Y-0.8323
X0.7657Y-0.8945
X0.7913Y-0.7917
X0.7917Y-0.1421
X0.7917Y-1.4413
X0.8618Y-2.103
X0.8729Y-2.0503
X0.922Y-2.0791
X0.9827Y-2.0184
X1.0666Y-0.4153
X1.0759Y-1.9285
X1.0909Y-1.1368
X1.0909Y-1.3804
X1.0909Y-1.7458
X1.0909Y-2.145
X1.0909Y-2.233
X1.1028Y-0.3791
X1.1152Y-1.6907
X1.1165Y-1.218
X1.1167Y-1.0805
X1.1319Y-0.5684
X1.1319Y-0.7917
X1.1368Y-0.1571
X1.1421Y-1.1924
X1.1421Y-1.2436
X1.1421Y-1.7458
X1.1421Y-1.8676
X1.1421Y-1.9285
X1.1472Y-2.0306
X1.1571Y-0.2083
X1.1571Y-1.9691
X1.1582Y-1.4265
X1.1831Y-0.9325
X1.1831Y-0.5684
X1.1831Y-0.8526
X1.1831Y-1.0094
X1.1977Y-1.8879
X1.203Y-1.5075
X1.2063Y-2.0306
X1.2342Y-1.8558
X1.249Y-1.9798
X1.2522Y-0.8639
X1.2835Y-1.8066
X1.2879Y-0.9104
X1.2992Y-1.1368
X1.2998Y-1.9291
X1.315Y-1.1992
X1.3505Y-1.8783
X1.3522Y-0.7988
X1.3601Y-1.7772
X1.3687Y-1.1454
X1.3804Y-0.1421
X1.3884Y-0.8403
X1.4007Y-1.8362
X1.4153Y-0.184
X1.421Y-1.7772
X1.4413Y-0.0609
X1.4413Y-0.7105
X1.4413Y-1.3601
X1.4616Y-1.8362
X1.4819Y-1.7772
X1.5225Y-1.8362
X1.5225Y-2.1112
X1.5225Y-2.3142
X1.5428Y-1.7772
X1.5834Y-1.8362
X1.6037Y-1.7772
X1.6443Y-1.8362
X1.6646Y-1.7772
X1.7052Y-1.8362
X1.7176Y-0.3327
X1.7255Y-0.9951
X1.7255Y-1.1447
X1.7255Y-1.7772
X1.7255Y-2.1112
X1.7255Y-2.3142
X1.7405Y-1.0935
X1.7544Y-0.2972
X1.7661Y-1.1571
X1.7661Y-1.8362
X1.7815Y-0.4872
X1.7815Y-0.71
X1.7864Y-1.7772
X1.7942Y-1.0028
X1.8067Y-0.068
X1.8067Y-0.1191
X1.827Y-1.8362
X1.8327Y-0.4872
X1.8327Y-0.8339
X1.8337Y-0.9084
X1.835Y-0.7635
X1.8623Y-1.5225
X1.8873Y-1.8885
X1.8879Y-1.4413
X1.8879Y-1.4819
X1.9232Y-0.8932
X1.9232Y-1.5225
X1.9331Y-1.6927
X1.9482Y-1.9494
X1.9488Y-0.8323
X1.9488Y-1.8067
X1.9646Y-1.7255
X1.9841Y-0.2233
X1.9841Y-0.5684
X1.9841Y-0.8067
X1.9841Y-0.9084
X1.9841Y-0.9596
X1.9841Y-1.4413
X1.9841Y-1.5225
X1.9841Y-1.6434
X2.0091Y-2.0103
X2.0105Y-0.1827
X2.03Y-1.8879
X2.0306Y-1.9482
X2.0353Y-0.2233
X2.0353Y-0.5684
X2.0353Y-0.8067
X2.0353Y-0.8579
X2.0417Y-2.0706
X2.0417Y-2.3668
X2.0417Y-2.4543
X2.0503Y-0.1571
X2.0649Y-0.3045
X2.0649Y-0.9338
X2.0649Y-1.5225
X2.0712Y-1.9888
X2.083Y-1.6726
X2.0893Y-1.8489
X2.0909Y-0.1421
X2.0909Y-0.7917
X2.0909Y-1.0353
X2.0909Y-1.1662
X2.0909Y-1.2436
X2.0909Y-1.4413
X2.1008Y-2.0706
X2.1008Y-2.3954
X2.1165Y-0.3751
X2.1283Y-1.8879
X2.1315Y-0.7511
X2.1315Y-1.0759
X2.1315Y-1.4007
X2.1315Y-1.9391
X2.1331Y-1.7645
X2.1518Y-0.4316
X2.1737Y-1.8051
X2.1924Y-1.1662
X2.1924Y-1.2436
X2.2106Y-2.2127
X2.2106Y-2.3142
X2.233Y-1.8209
X2.2533Y-1.1112
X2.2697Y-2.0001
X2.2697Y-2.1924
X2.2697Y-2.286
X2.2697Y-2.3668
X2.2736Y-1.8209
X2.2736Y-2.4969
X2.2736Y-2.558
X2.2939Y-1.1662
X2.2939Y-1.2436
X2.3089Y-2.3336
X2.3142Y-1.3195
X2.3142Y-1.4413
X2.3142Y-1.8209
X2.3548Y-1.1368
X2.3548Y-1.8209
X2.3751Y-0.4263
X2.3751Y-1.0759
X2.3751Y-1.9135
X2.3751Y-2.3453
X2.3901Y-1.2992
X2.3901Y-1.3804
X2.3954Y-1.8209
X2.3996Y-2.4961
X2.4118Y-1.8919
X2.4122Y-0.3893
X2.4157Y-1.1924
X2.4157Y-1.6796
X2.4158Y-2.3453
X2.4311Y-0.5684
X2.4311Y-1.0353
X2.4311Y-0.7819
X2.436Y-0.1492
X2.436Y-1.8209
X2.4387Y-0.2003
X2.4413Y-1.2436
X2.444Y-1.4131
X2.4512Y-1.1272
X2.4535Y-2.2968
X2.4563Y-1.1924
X2.4563Y-1.9894
X2.4567Y-2.4579
X2.4613Y-1.7102
X2.4766Y-2.3209
X2.4823Y-0.8257
X2.4823Y-0.5684
X2.4823Y-0.8782
X2.4823Y-0.9947
X2.5062Y-1.5631
X2.5193Y-2.2903
X2.5322Y-1.5276
X2.5375Y-1.8623
X2.5414Y-2.4805
X2.5578Y-1.624
X2.5578Y-2.3209
X2.5781Y-0.203
X2.5781Y-2.4969
X2.5834Y-1.218
X2.59Y-2.0171
X2.6006Y-0.9541
X2.6006Y-1.0353
X2.6006Y-1.1165
X2.6006Y-1.1916
X2.6142Y-0.1607
X2.6187Y-0.8782
X2.6187Y-2.2867
X2.6187Y-2.4766
X2.6262Y-0.921
X2.6262Y-1.6496
X2.6337Y-0.6496
X2.6593Y-1.6805
X2.6593Y-2.0097
X2.6849Y-1.2992
X2.6849Y-1.5428
X2.6849Y-1.5834
X2.6915Y-0.6536
X2.6999Y-0.2352
X2.6999Y-0.2863
X2.6999Y-0.8782
X2.6999Y-0.939
X2.7013Y-2.0111
X2.7145Y-1.0463
X2.7145Y-1.6037
X2.7215Y-2.111
X2.7323Y-1.1242
X2.7326Y-2.0804
X2.734Y-1.7864
X2.7405Y-0.2233
X2.7405Y-0.8729
X2.7405Y-1.5225
X2.7608Y-0.5481
X2.7608Y-0.8099
X2.7608Y-1.4595
X2.7657Y-1.5631
X2.7716Y-2.5077
X2.7739Y-2.2867
X2.7811Y-2.1924
X2.8014Y-1.8344
X2.8027Y-1.9894
X2.8217Y-1.8987
X2.842Y-1.9894
X2.8814Y-1.9894
X2.8986Y-2.2896
X2.9029Y-1.8984
X2.9029Y-2.1924
X2.9208Y-1.9894
X2.9435Y-1.8984
X2.9601Y-1.9894
X2.9621Y-2.0909
X2.9638Y-0.8878
X2.9841Y-1.8984
X2.9995Y-1.9894
X3.0036Y-0.5225
X3.0247Y-1.8067
X3.0247Y-1.8879
X3.033Y-2.015
X3.0384Y-1.1774
X3.0384Y-1.2992
X3.0384Y-1.4616
X3.05Y-0.5531
X3.0567Y-2.3465
X3.0626Y-1.7705
X3.064Y-1.1223
X3.0653Y-2.015
X3.0653Y-2.2533
X3.0687Y-2.1178
X3.0722Y-2.0623
X3.0807Y-0.8878
X3.0855Y-1.8988
X3.0896Y-1.1774
X3.0896Y-1.2992
X3.0896Y-1.4616
X3.1047Y-0.4259
X3.1059Y-1.8067
X3.1059Y-2.015
X3.1138Y-1.8987
X3.1142Y-0.4889
X3.1319Y-0.939
X3.1319Y-1.7255
X3.1465Y-2.0909
X3.1527Y-2.0521
X3.1621Y-0.4409
X3.1832Y-2.2104
X3.2159Y-2.015
X3.2168Y-0.3139
X3.2224Y-1.7052
X3.2286Y-1.9638
X3.248Y-2.0471
X3.2505Y-0.3525
X3.2736Y-1.7052
X3.2736Y-2.149
X3.3416Y-1.9409
X3.3645Y-0.6496
X3.3645Y-0.8878
X3.3645Y-0.939
X3.3645Y-1.2992
X3.3645Y-1.5022
X3.3645Y-1.6646
X3.3645Y-2.0909
X3.3645Y-2.2382
X3.3822Y-0.4184
X3.3901Y-0.2382
X3.3901Y-0.2894
X3.3901Y-2.3142
X3.3954Y-1.9594
X3.4157Y-0.6496
X3.4157Y-0.8526
X3.4157Y-0.9744
X3.4157Y-1.2992
X3.4157Y-1.5022
X3.4157Y-1.624
X3.4157Y-2.1518
X3.421Y-2.2683
X3.422Y-1.752
T4
X0.0811Y-2.378
X0.2031Y-2.378
X0.2638Y-0.4291
X0.2638Y-1.0787
X0.2638Y-1.7283
X0.3858Y-0.4291
X0.3858Y-1.0787
X0.3858Y-1.7283
X0.7307Y-2.378
X0.8527Y-2.378
X0.9134Y-0.3479
X0.9134Y-0.9975
X0.9134Y-1.6471
X1.0354Y-0.3479
X1.0354Y-0.9975
X1.0354Y-1.6471
X1.563Y-0.2667
X1.563Y-0.9163
X1.563Y-1.5659
X1.685Y-0.2667
X1.685Y-0.9163
X1.685Y-1.5659
X2.2126Y-0.3479
X2.2126Y-0.9975
X2.2126Y-1.6471
X2.3346Y-0.3479
X2.3346Y-0.9975
X2.3346Y-1.6471
X2.8622Y-0.4291
X2.8622Y-1.0787
X2.8622Y-1.7283
X2.9843Y-0.4291
X2.9843Y-1.0787
X2.9843Y-1.7283
X3.4528Y-0.2638
X3.4528Y-0.3858
X3.4528Y-0.9134
X3.4528Y-1.0354
X3.4528Y-1.563
X3.4528Y-1.685
X3.4528Y-2.2126
X3.4528Y-2.3346
T2
G00X2.7574Y-2.4136
M15
G01X2.7574Y-2.4373
M16
G05
G00X2.9267Y-2.4136
M15
G01X2.9267Y-2.4373
M16
G05
T3
G00X2.1923Y-1.9612
M15
G01X2.1926Y-1.9612
M16
G05
G00X2.1923Y-2.0612
M15
G01X2.1926Y-2.0612
M16
G05
G00X2.1923Y-2.1612
M15
G01X2.1926Y-2.1612
M16
G05
G00X2.1923Y-2.2612
M15
G01X2.1926Y-2.2612
M16
G05
G00X2.3344Y-1.9612
M15
G01X2.3347Y-1.9612
M16
G05
G00X2.3344Y-2.0612
M15
G01X2.3347Y-2.0612
M16
G05
G00X2.3344Y-2.1612
M15
G01X2.3347Y-2.1612
M16
G05
G00X2.3344Y-2.2612
M15
G01X2.3347Y-2.2612
M16
G05
M30
