M48
; DRILL file {KiCad 9.0.7} date 2026-08-26T13:09:54+0900
; FORMAT={-:-/ absolute / inch / decimal}
; #@! TF.CreationDate,2026-08-26T13:09:54+09:00
; #@! TF.GenerationSoftware,Kicad,Pcbnew,9.0.7
; #@! TF.FileFunction,NonPlated,1,2,NPTH
FMAT,2
INCH
; #@! TA.AperFunction,NonPlated,NPTH,ComponentDrill
T1C0.0354
; #@! TA.AperFunction,NonPlated,NPTH,ComponentDrill
T2C0.0394
; #@! TA.AperFunction,NonPlated,NPTH,ComponentDrill
T3C0.0472
%
G90
G05
T1
X2.2146Y-2.491
X2.3327Y-2.491
T2
X-0.0862Y-2.3819
X0.0965Y-0.4331
X0.0965Y-1.0827
X0.0965Y-1.7323
X0.5634Y-2.3819
X0.7461Y-0.3519
X0.7461Y-1.0015
X0.7461Y-1.6511
X1.3957Y-0.2707
X1.3957Y-0.9203
X1.3957Y-1.5699
X2.0453Y-0.3519
X2.0453Y-1.0015
X2.0453Y-1.6511
X2.6949Y-0.4331
X2.6949Y-1.0827
X2.6949Y-1.7323
X3.4803Y-0.0965
X3.4803Y-0.7461
X3.4803Y-1.3957
X3.4803Y-2.0453
T3
X0.3704Y-2.1654
X0.5531Y-0.2165
X0.5531Y-0.8661
X0.5531Y-1.5157
X1.0201Y-2.1654
X1.2028Y-0.1353
X1.2028Y-0.7849
X1.2028Y-1.4345
X1.8524Y-0.0541
X1.8524Y-0.7037
X1.8524Y-1.3533
X2.502Y-0.1353
X2.502Y-0.7849
X2.502Y-1.4345
X3.1516Y-0.2165
X3.1516Y-0.8661
X3.1516Y-1.5157
X3.4803Y-0.5531
X3.4803Y-1.2028
X3.4803Y-1.8524
X3.4803Y-2.502
M30
