M48
; DRILL file {KiCad 9.0.7} date 2026-08-05T01:29:22+0900
; FORMAT={-:-/ absolute / metric / decimal}
; #@! TF.CreationDate,2026-08-05T01:29:22+09:00
; #@! TF.GenerationSoftware,Kicad,Pcbnew,9.0.7
; #@! TF.FileFunction,NonPlated,1,2,NPTH
FMAT,2
METRIC
; #@! TA.AperFunction,NonPlated,NPTH,ComponentDrill
T1C0.900
; #@! TA.AperFunction,NonPlated,NPTH,ComponentDrill
T2C1.000
; #@! TA.AperFunction,NonPlated,NPTH,ComponentDrill
T3C1.200
%
G90
G05
T1
X55.219Y-63.272
X58.219Y-63.272
T2
X-2.191Y-60.5
X2.45Y-11.0
X2.45Y-27.5
X2.45Y-44.0
X14.309Y-60.5
X18.95Y-8.938
X18.95Y-25.438
X18.95Y-41.938
X35.45Y-6.875
X35.45Y-23.375
X35.45Y-39.875
X51.95Y-8.938
X51.95Y-25.438
X51.95Y-41.938
X68.45Y-11.0
X68.45Y-27.5
X68.45Y-44.0
X88.4Y-2.45
X88.4Y-18.95
X88.4Y-35.45
X88.4Y-51.95
T3
X9.409Y-55.0
X14.05Y-5.5
X14.05Y-22.0
X14.05Y-38.5
X25.909Y-55.0
X30.55Y-3.438
X30.55Y-19.938
X30.55Y-36.438
X47.05Y-1.375
X47.05Y-17.875
X47.05Y-34.375
X63.55Y-3.438
X63.55Y-19.938
X63.55Y-36.438
X80.05Y-5.5
X80.05Y-22.0
X80.05Y-38.5
X88.4Y-14.05
X88.4Y-30.55
X88.4Y-47.05
X88.4Y-63.55
M30
