M48
; DRILL file {KiCad 9.0.7} date 2026-08-05T01:29:22+0900
; FORMAT={-:-/ absolute / metric / decimal}
; #@! TF.CreationDate,2026-08-05T01:29:22+09:00
; #@! TF.GenerationSoftware,Kicad,Pcbnew,9.0.7
; #@! TF.FileFunction,Plated,1,2,PTH
FMAT,2
METRIC
; #@! TA.AperFunction,Plated,PTH,ViaDrill
T1C0.300
; #@! TA.AperFunction,Plated,PTH,ComponentDrill
T2C1.200
%
G90
G05
T1
X2.062Y-55.172
X5.159Y-49.5
X6.459Y-49.5
X6.703Y-5.672
X6.703Y-22.172
X6.703Y-38.672
X9.8Y-16.5
X9.8Y-33.0
X11.1Y-16.5
X11.1Y-33.0
X11.859Y-55.473
X11.859Y-56.773
X12.375Y-43.25
X12.375Y-44.55
X16.5Y-5.851
X16.5Y-7.151
X16.5Y-22.836
X16.5Y-24.136
X16.5Y-38.851
X16.5Y-40.151
X18.562Y-55.172
X21.659Y-48.469
X22.959Y-48.469
X23.203Y-3.609
X23.203Y-20.109
X23.203Y-36.609
X26.297Y-14.438
X26.297Y-30.938
X27.328Y-46.238
X27.35Y-47.538
X27.6Y-14.438
X27.6Y-30.938
X28.359Y-48.469
X30.407Y-50.517
X31.468Y-51.577
X33.0Y-3.788
X33.0Y-5.088
X33.0Y-20.288
X33.0Y-21.588
X33.0Y-36.788
X33.0Y-38.088
X34.846Y-46.078
X36.223Y-46.822
X37.125Y-43.776
X38.672Y-53.109
X38.672Y-55.688
X38.672Y-58.266
X39.703Y-1.547
X39.703Y-18.047
X39.703Y-34.547
X41.25Y-53.109
X41.25Y-55.688
X41.25Y-58.266
X42.797Y-12.375
X42.797Y-28.875
X43.828Y-53.109
X43.828Y-55.688
X43.828Y-58.266
X44.1Y-12.375
X44.1Y-28.875
X45.891Y-43.776
X48.97Y-48.999
X49.5Y-3.991
X49.5Y-5.291
X49.5Y-20.491
X49.5Y-21.791
X49.5Y-36.91
X49.5Y-38.21
X49.5Y-39.125
X49.5Y-40.425
X49.9Y-45.17
X50.15Y-48.058
X52.92Y-61.033
X53.109Y-45.756
X53.109Y-48.058
X54.029Y-60.022
X54.427Y-58.807
X55.539Y-45.756
X55.629Y-48.058
X55.989Y-58.48
X56.074Y-56.993
X56.203Y-3.609
X56.203Y-20.109
X56.203Y-36.609
X56.203Y-60.844
X56.857Y-45.236
X57.234Y-56.203
X57.278Y-59.769
X58.266Y-45.838
X58.266Y-48.642
X58.579Y-59.499
X58.869Y-55.688
X59.297Y-14.438
X59.297Y-30.938
X59.628Y-58.597
X60.194Y-51.549
X60.448Y-57.466
X60.6Y-14.438
X60.844Y-30.938
X60.844Y-45.375
X61.097Y-35.062
X61.097Y-40.073
X61.26Y-61.458
X61.323Y-52.115
X61.45Y-25.266
X61.506Y-49.5
X61.598Y-23.719
X61.598Y-20.607
X61.606Y-54.376
X61.875Y-63.769
X62.144Y-48.14
X62.391Y-60.448
X62.898Y-20.885
X62.898Y-24.884
X62.898Y-30.938
X62.898Y-37.641
X62.906Y-58.266
X62.906Y-64.453
X63.058Y-8.614
X63.275Y-39.703
X63.399Y-41.188
X63.938Y-22.553
X64.283Y-54.827
X64.306Y-52.447
X64.306Y-57.603
X64.41Y-51.631
X64.453Y-64.453
X64.465Y-60.234
X64.477Y-63.081
X64.79Y-25.638
X64.818Y-48.85
X64.834Y-31.969
X64.834Y-39.053
X64.834Y-40.353
X64.916Y-59.366
X64.969Y-6.053
X64.969Y-7.353
X64.969Y-23.203
X64.969Y-50.531
X65.484Y-58.081
X65.484Y-63.769
X65.794Y-50.221
X65.907Y-51.562
X66.0Y-6.703
X66.65Y-22.553
X66.65Y-24.884
X66.65Y-31.969
X66.65Y-41.188
X66.65Y-42.487
X67.031Y-8.116
X67.031Y-9.416
X67.547Y-39.053
X67.547Y-40.353
X67.547Y-50.121
X67.871Y-52.781
X68.106Y-61.875
X68.578Y-53.156
X68.96Y-50.254
X69.609Y-47.819
X69.609Y-55.856
X69.609Y-58.156
X70.156Y-63.081
X70.581Y-59.872
X71.134Y-47.819
X72.21Y-49.634
X72.703Y-5.672
X72.703Y-22.172
X72.703Y-38.672
X72.703Y-55.856
X72.703Y-60.844
X72.905Y-47.751
X73.734Y-53.156
X74.921Y-49.749
X75.012Y-47.819
X75.281Y-6.053
X75.8Y-16.5
X75.8Y-33.0
X76.452Y-50.155
X76.547Y-6.872
X76.822Y-47.947
X76.828Y-46.406
X76.828Y-51.047
X76.828Y-55.003
X77.1Y-16.5
X77.1Y-33.0
X77.372Y-60.844
X77.859Y-48.984
X77.859Y-56.203
X78.672Y-60.844
X78.891Y-48.334
X78.891Y-49.634
X79.922Y-56.203
X80.121Y-41.849
X80.953Y-44.1
X80.953Y-55.053
X81.009Y-42.8
X82.384Y-39.587
X82.399Y-22.385
X82.5Y-8.116
X82.5Y-9.416
X82.5Y-24.234
X82.5Y-48.334
X82.5Y-49.634
X82.529Y-41.279
X90.234Y-26.297
X90.325Y-56.405
X91.3Y-57.269
X91.562Y-12.079
X91.579Y-42.595
X91.651Y-26.83
X92.481Y-11.16
X92.603Y-43.41
T2
G00X-2.741Y-52.05
M15
G01X-2.741Y-53.05
M16
G05
G00X-2.741Y-62.45
M15
G01X-2.741Y-63.45
M16
G05
G00X1.109Y-60.0
M15
G01X1.109Y-60.8
M16
G05
G00X1.9Y-2.55
M15
G01X1.9Y-3.55
M16
G05
G00X1.9Y-12.95
M15
G01X1.9Y-13.95
M16
G05
G00X1.9Y-19.05
M15
G01X1.9Y-20.05
M16
G05
G00X1.9Y-29.45
M15
G01X1.9Y-30.45
M16
G05
G00X1.9Y-35.55
M15
G01X1.9Y-36.55
M16
G05
G00X1.9Y-45.95
M15
G01X1.9Y-46.95
M16
G05
G00X5.75Y-10.5
M15
G01X5.75Y-11.3
M16
G05
G00X5.75Y-27.0
M15
G01X5.75Y-27.8
M16
G05
G00X5.75Y-43.5
M15
G01X5.75Y-44.3
M16
G05
G00X5.809Y-60.0
M15
G01X5.809Y-60.8
M16
G05
G00X9.959Y-52.05
M15
G01X9.959Y-53.05
M16
G05
G00X9.959Y-62.45
M15
G01X9.959Y-63.45
M16
G05
G00X10.45Y-10.5
M15
G01X10.45Y-11.3
M16
G05
G00X10.45Y-27.0
M15
G01X10.45Y-27.8
M16
G05
G00X10.45Y-43.5
M15
G01X10.45Y-44.3
M16
G05
G00X13.759Y-52.05
M15
G01X13.759Y-53.05
M16
G05
G00X13.759Y-62.45
M15
G01X13.759Y-63.45
M16
G05
G00X14.6Y-2.55
M15
G01X14.6Y-3.55
M16
G05
G00X14.6Y-12.95
M15
G01X14.6Y-13.95
M16
G05
G00X14.6Y-19.05
M15
G01X14.6Y-20.05
M16
G05
G00X14.6Y-29.45
M15
G01X14.6Y-30.45
M16
G05
G00X14.6Y-35.55
M15
G01X14.6Y-36.55
M16
G05
G00X14.6Y-45.95
M15
G01X14.6Y-46.95
M16
G05
G00X17.609Y-60.0
M15
G01X17.609Y-60.8
M16
G05
G00X18.4Y-0.487
M15
G01X18.4Y-1.487
M16
G05
G00X18.4Y-10.887
M15
G01X18.4Y-11.887
M16
G05
G00X18.4Y-16.988
M15
G01X18.4Y-17.988
M16
G05
G00X18.4Y-27.387
M15
G01X18.4Y-28.387
M16
G05
G00X18.4Y-33.487
M15
G01X18.4Y-34.487
M16
G05
G00X18.4Y-43.887
M15
G01X18.4Y-44.887
M16
G05
G00X22.25Y-8.438
M15
G01X22.25Y-9.237
M16
G05
G00X22.25Y-24.938
M15
G01X22.25Y-25.737
M16
G05
G00X22.25Y-41.438
M15
G01X22.25Y-42.237
M16
G05
G00X22.309Y-60.0
M15
G01X22.309Y-60.8
M16
G05
G00X26.459Y-52.05
M15
G01X26.459Y-53.05
M16
G05
G00X26.459Y-62.45
M15
G01X26.459Y-63.45
M16
G05
G00X26.95Y-8.438
M15
G01X26.95Y-9.237
M16
G05
G00X26.95Y-24.938
M15
G01X26.95Y-25.737
M16
G05
G00X26.95Y-41.438
M15
G01X26.95Y-42.237
M16
G05
G00X31.1Y-0.487
M15
G01X31.1Y-1.487
M16
G05
G00X31.1Y-10.887
M15
G01X31.1Y-11.887
M16
G05
G00X31.1Y-16.988
M15
G01X31.1Y-17.988
M16
G05
G00X31.1Y-27.387
M15
G01X31.1Y-28.387
M16
G05
G00X31.1Y-33.487
M15
G01X31.1Y-34.487
M16
G05
G00X31.1Y-43.887
M15
G01X31.1Y-44.887
M16
G05
G00X34.9Y1.575
M15
G01X34.9Y0.575
M16
G05
G00X34.9Y-8.825
M15
G01X34.9Y-9.825
M16
G05
G00X34.9Y-14.925
M15
G01X34.9Y-15.925
M16
G05
G00X34.9Y-25.325
M15
G01X34.9Y-26.325
M16
G05
G00X34.9Y-31.425
M15
G01X34.9Y-32.425
M16
G05
G00X34.9Y-41.825
M15
G01X34.9Y-42.825
M16
G05
G00X38.75Y-6.375
M15
G01X38.75Y-7.175
M16
G05
G00X38.75Y-22.875
M15
G01X38.75Y-23.675
M16
G05
G00X38.75Y-39.375
M15
G01X38.75Y-40.175
M16
G05
G00X43.45Y-6.375
M15
G01X43.45Y-7.175
M16
G05
G00X43.45Y-22.875
M15
G01X43.45Y-23.675
M16
G05
G00X43.45Y-39.375
M15
G01X43.45Y-40.175
M16
G05
G00X47.6Y1.575
M15
G01X47.6Y0.575
M16
G05
G00X47.6Y-8.825
M15
G01X47.6Y-9.825
M16
G05
G00X47.6Y-14.925
M15
G01X47.6Y-15.925
M16
G05
G00X47.6Y-25.325
M15
G01X47.6Y-26.325
M16
G05
G00X47.6Y-31.425
M15
G01X47.6Y-32.425
M16
G05
G00X47.6Y-41.825
M15
G01X47.6Y-42.825
M16
G05
G00X51.4Y-0.487
M15
G01X51.4Y-1.487
M16
G05
G00X51.4Y-10.887
M15
G01X51.4Y-11.887
M16
G05
G00X51.4Y-16.988
M15
G01X51.4Y-17.988
M16
G05
G00X51.4Y-27.387
M15
G01X51.4Y-28.387
M16
G05
G00X51.4Y-33.487
M15
G01X51.4Y-34.487
M16
G05
G00X51.4Y-43.887
M15
G01X51.4Y-44.887
M16
G05
G00X55.25Y-8.438
M15
G01X55.25Y-9.237
M16
G05
G00X55.25Y-24.938
M15
G01X55.25Y-25.737
M16
G05
G00X55.25Y-41.438
M15
G01X55.25Y-42.237
M16
G05
G00X59.95Y-8.438
M15
G01X59.95Y-9.237
M16
G05
G00X59.95Y-24.938
M15
G01X59.95Y-25.737
M16
G05
G00X59.95Y-41.438
M15
G01X59.95Y-42.237
M16
G05
G00X64.1Y-0.487
M15
G01X64.1Y-1.487
M16
G05
G00X64.1Y-10.887
M15
G01X64.1Y-11.887
M16
G05
G00X64.1Y-16.988
M15
G01X64.1Y-17.988
M16
G05
G00X64.1Y-27.387
M15
G01X64.1Y-28.387
M16
G05
G00X64.1Y-33.487
M15
G01X64.1Y-34.487
M16
G05
G00X64.1Y-43.887
M15
G01X64.1Y-44.887
M16
G05
G00X67.9Y-2.55
M15
G01X67.9Y-3.55
M16
G05
G00X67.9Y-12.95
M15
G01X67.9Y-13.95
M16
G05
G00X67.9Y-19.05
M15
G01X67.9Y-20.05
M16
G05
G00X67.9Y-29.45
M15
G01X67.9Y-30.45
M16
G05
G00X67.9Y-35.55
M15
G01X67.9Y-36.55
M16
G05
G00X67.9Y-45.95
M15
G01X67.9Y-46.95
M16
G05
G00X71.75Y-10.5
M15
G01X71.75Y-11.3
M16
G05
G00X71.75Y-27.0
M15
G01X71.75Y-27.8
M16
G05
G00X71.75Y-43.5
M15
G01X71.75Y-44.3
M16
G05
G00X76.45Y-10.5
M15
G01X76.45Y-11.3
M16
G05
G00X76.45Y-27.0
M15
G01X76.45Y-27.8
M16
G05
G00X76.45Y-43.5
M15
G01X76.45Y-44.3
M16
G05
G00X80.6Y-2.55
M15
G01X80.6Y-3.55
M16
G05
G00X80.6Y-12.95
M15
G01X80.6Y-13.95
M16
G05
G00X80.6Y-19.05
M15
G01X80.6Y-20.05
M16
G05
G00X80.6Y-29.45
M15
G01X80.6Y-30.45
M16
G05
G00X80.6Y-35.55
M15
G01X80.6Y-36.55
M16
G05
G00X80.6Y-45.95
M15
G01X80.6Y-46.95
M16
G05
G00X85.75Y-1.9
M15
G01X84.75Y-1.9
M16
G05
G00X85.75Y-14.6
M15
G01X84.75Y-14.6
M16
G05
G00X85.75Y-18.4
M15
G01X84.75Y-18.4
M16
G05
G00X85.75Y-31.1
M15
G01X84.75Y-31.1
M16
G05
G00X85.75Y-34.9
M15
G01X84.75Y-34.9
M16
G05
G00X85.75Y-47.6
M15
G01X84.75Y-47.6
M16
G05
G00X85.75Y-51.4
M15
G01X84.75Y-51.4
M16
G05
G00X85.75Y-64.1
M15
G01X84.75Y-64.1
M16
G05
G00X88.1Y-5.75
M15
G01X87.3Y-5.75
M16
G05
G00X88.1Y-10.45
M15
G01X87.3Y-10.45
M16
G05
G00X88.1Y-22.25
M15
G01X87.3Y-22.25
M16
G05
G00X88.1Y-26.95
M15
G01X87.3Y-26.95
M16
G05
G00X88.1Y-38.75
M15
G01X87.3Y-38.75
M16
G05
G00X88.1Y-43.45
M15
G01X87.3Y-43.45
M16
G05
G00X88.1Y-55.25
M15
G01X87.3Y-55.25
M16
G05
G00X88.1Y-59.95
M15
G01X87.3Y-59.95
M16
G05
G00X92.05Y-1.9
M15
G01X91.05Y-1.9
M16
G05
G00X92.05Y-14.6
M15
G01X91.05Y-14.6
M16
G05
G00X92.05Y-18.4
M15
G01X91.05Y-18.4
M16
G05
G00X92.05Y-31.1
M15
G01X91.05Y-31.1
M16
G05
G00X92.05Y-34.9
M15
G01X91.05Y-34.9
M16
G05
G00X92.05Y-47.6
M15
G01X91.05Y-47.6
M16
G05
G00X92.05Y-51.4
M15
G01X91.05Y-51.4
M16
G05
G00X92.05Y-64.1
M15
G01X91.05Y-64.1
M16
G05
M30
