M48
; DRILL file {KiCad 9.0.7} date 2026-08-27T00:48:11+0900
; FORMAT={-:-/ absolute / inch / decimal}
; #@! TF.CreationDate,2026-08-27T00:48:11+09:00
; #@! TF.GenerationSoftware,Kicad,Pcbnew,9.0.7
; #@! TF.FileFunction,Plated,1,2,PTH
FMAT,2
INCH
; #@! TA.AperFunction,Plated,PTH,ViaDrill
T1C0.0118
; #@! TA.AperFunction,Plated,PTH,ComponentDrill
T2C0.0236
; #@! TA.AperFunction,Plated,PTH,ComponentDrill
T3C0.0320
%
G90
G05
T1
X0.898Y-1.0538
X0.898Y-1.1165
X0.898Y-1.1977
X0.898Y-1.4007
X0.898Y-1.5225
X0.898Y-1.6184
X0.898Y-1.7458
X0.898Y-1.8676
X0.898Y-1.9691
X0.9541Y-1.2789
X0.9633Y-1.4007
X0.9633Y-1.5225
X0.9633Y-1.7458
X0.9744Y-1.0556
X0.9744Y-1.4413
X0.9744Y-1.6184
X0.9814Y-0.9023
X0.9947Y-1.093
X0.9947Y-1.1977
X0.9947Y-1.2646
X0.997Y-1.0173
X1.0016Y-1.3398
X1.0347Y-1.4669
X1.0503Y-1.8676
X1.0562Y-1.5225
X1.0562Y-1.624
X1.0562Y-1.6973
X1.0607Y-1.3398
X1.0623Y-1.2642
X1.0637Y-1.4076
X1.0759Y-1.1368
X1.0759Y-1.1977
X1.0759Y-2.0097
X1.0962Y-1.2789
X1.1015Y-1.8676
X1.1165Y-1.4413
X1.1289Y-1.6973
X1.1468Y-1.4907
X1.1482Y-1.4007
X1.1518Y-1.622
X1.1571Y-1.0182
X1.1571Y-1.0556
X1.1604Y-1.8591
X1.1665Y-1.732
X1.1682Y-1.9612
X1.1704Y-0.9023
X1.1722Y-1.7661
X1.1795Y-1.2404
X1.1795Y-1.2789
X1.184Y-1.191
X1.1869Y-1.1101
X1.2383Y-1.9082
X1.2383Y-1.9691
X1.2383Y-2.0503
X1.2539Y-1.0538
X1.2539Y-1.1571
X1.2539Y-1.2586
X1.2539Y-1.3398
X1.2539Y-1.4007
X1.2539Y-1.4616
X1.2539Y-1.5225
X1.2539Y-1.5834
X1.2539Y-1.6443
X1.2539Y-1.7052
X1.2539Y-1.7661
X1.2539Y-1.827
T2
G00X0.9058Y-0.7419
M15
G01X0.9058Y-0.7183
M16
G05
G00X0.9058Y-0.9163
M15
G01X0.9058Y-0.873
M16
G05
G00X1.246Y-0.7419
M15
G01X1.246Y-0.7183
M16
G05
G00X1.246Y-0.9163
M15
G01X1.246Y-0.873
M16
G05
T3
G00X1.005Y-1.8112
M15
G01X1.0047Y-1.8112
M16
G05
G00X1.005Y-1.9112
M15
G01X1.0047Y-1.9112
M16
G05
G00X1.005Y-2.0112
M15
G01X1.0047Y-2.0112
M16
G05
G00X1.005Y-2.1112
M15
G01X1.0047Y-2.1112
M16
G05
G00X1.1471Y-1.8112
M15
G01X1.1468Y-1.8112
M16
G05
G00X1.1471Y-1.9112
M15
G01X1.1468Y-1.9112
M16
G05
G00X1.1471Y-2.0112
M15
G01X1.1468Y-2.0112
M16
G05
G00X1.1471Y-2.1112
M15
G01X1.1468Y-2.1112
M16
G05
M30
