M48
; DRILL file {KiCad 9.0.7} date 2026-08-26T13:10:03+0900
; FORMAT={-:-/ absolute / inch / decimal}
; #@! TF.CreationDate,2026-08-26T13:10:03+09:00
; #@! TF.GenerationSoftware,Kicad,Pcbnew,9.0.7
; #@! TF.FileFunction,Plated,1,2,PTH
FMAT,2
INCH
; #@! TA.AperFunction,Plated,PTH,ViaDrill
T1C0.0118
; #@! TA.AperFunction,Plated,PTH,ComponentDrill
T2C0.0315
; #@! TA.AperFunction,Plated,PTH,ComponentDrill
T3C0.0320
; #@! TA.AperFunction,Plated,PTH,ComponentDrill
T4C0.0394
%
G90
G05
T1
X-3.5537Y-0.5135
X-3.5537Y-1.1631
X-3.5537Y-1.8127
X-3.5525Y-2.4646
X-3.5119Y-0.6496
X-3.4916Y-1.2992
X-3.385Y-2.1721
X-3.3698Y-0.3857
X-3.3698Y-0.6496
X-3.3698Y-0.7917
X-3.3698Y-0.9135
X-3.3698Y-1.0353
X-3.3698Y-1.2992
X-3.3698Y-1.4413
X-3.3698Y-1.5834
X-3.3698Y-1.7458
X-3.3698Y-1.9488
X-3.3698Y-2.0909
X-3.3292Y-2.2533
X-3.3089Y-0.3045
X-3.3036Y-0.4872
X-3.2939Y-0.6496
X-3.2939Y-0.8526
X-3.2939Y-1.0353
X-3.2939Y-1.2992
X-3.2939Y-1.5022
X-3.2939Y-1.624
X-3.2939Y-1.7864
X-3.2736Y-1.9331
X-3.2683Y-2.1721
X-3.2277Y-0.3857
X-3.2277Y-0.6496
X-3.2277Y-0.9135
X-3.2074Y-2.5106
X-3.1871Y-1.015
X-3.1871Y-1.2992
X-3.1871Y-1.5225
X-3.1871Y-1.5834
X-3.1867Y-1.9474
X-3.1668Y-0.8932
X-3.1668Y-2.5375
X-3.1606Y-2.0503
X-3.1465Y-0.9744
X-3.1465Y-1.6443
X-3.1306Y-2.1518
X-3.1262Y-2.4131
X-3.1262Y-2.4766
X-3.1262Y-2.5106
X-3.107Y-0.2842
X-3.1063Y-0.9338
X-3.1063Y-1.5834
X-3.0856Y-1.8067
X-3.0856Y-1.8879
X-3.0856Y-1.9488
X-3.0856Y-2.5375
X-3.0604Y-2.2521
X-3.0504Y-0.2638
X-3.045Y-0.1827
X-3.045Y-0.8473
X-3.045Y-2.2867
X-3.045Y-2.3751
X-3.045Y-2.5106
X-3.0247Y-0.9036
X-3.0044Y-1.8067
X-3.0044Y-1.9488
X-2.9924Y-2.0503
X-2.9652Y-2.4983
X-2.9232Y-1.8879
X-2.9232Y-2.5468
X-2.922Y-2.1112
X-2.9215Y-2.078
X-2.8944Y-2.4856
X-2.8826Y-0.2233
X-2.8826Y-0.8729
X-2.8826Y-1.5225
X-2.8623Y-2.1924
X-2.858Y-2.2896
X-2.842Y-0.5075
X-2.842Y-0.7917
X-2.842Y-1.1774
X-2.842Y-1.2992
X-2.842Y-1.4413
X-2.842Y-1.8067
X-2.842Y-1.9232
X-2.842Y-2.4766
X-2.842Y-2.5468
X-2.8408Y-1.9941
X-2.8014Y-1.1165
X-2.8014Y-1.9941
X-2.7608Y-0.2233
X-2.7608Y-0.5075
X-2.7608Y-0.7917
X-2.7608Y-1.1774
X-2.7608Y-1.2992
X-2.7608Y-1.8067
X-2.7608Y-1.8473
X-2.7608Y-1.9941
X-2.7608Y-2.4877
X-2.7608Y-2.5468
X-2.7582Y-1.5807
X-2.7458Y-0.9338
X-2.7448Y-2.2896
X-2.7405Y-1.4819
X-2.7405Y-2.1924
X-2.7227Y-1.9941
X-2.6833Y-1.9941
X-2.6813Y-2.0909
X-2.6796Y-0.9338
X-2.6796Y-1.0759
X-2.6796Y-1.6646
X-2.6439Y-1.9941
X-2.639Y-0.8729
X-2.639Y-1.2992
X-2.639Y-1.5225
X-2.639Y-1.5834
X-2.639Y-1.7255
X-2.639Y-2.4877
X-2.639Y-2.5468
X-2.5984Y-0.5684
X-2.5984Y-2.0503
X-2.5787Y-2.4557
X-2.5781Y-2.0097
X-2.5781Y-2.2533
X-2.5578Y-1.218
X-2.5578Y-1.6646
X-2.5578Y-1.9082
X-2.5381Y-2.4151
X-2.5375Y-0.2233
X-2.5369Y-2.4975
X-2.5172Y-0.8323
X-2.5172Y-1.4819
X-2.5034Y-2.3804
X-2.4969Y-0.2639
X-2.4969Y-0.9338
X-2.4969Y-1.5834
X-2.4969Y-1.8473
X-2.4963Y-2.4569
X-2.4766Y-1.9082
X-2.4563Y-0.1421
X-2.4563Y-0.7917
X-2.4563Y-1.4413
X-2.4563Y-1.7202
X-2.4501Y-2.4107
X-2.436Y-0.5278
X-2.436Y-0.609
X-2.436Y-1.8676
X-2.4221Y-2.2438
X-2.416Y-2.116
X-2.4157Y-1.9285
X-2.4112Y-1.9907
X-2.3954Y-0.1015
X-2.3751Y-1.7202
X-2.3751Y-1.8526
X-2.3663Y-2.3292
X-2.3548Y-0.5278
X-2.3345Y-1.1774
X-2.2939Y-1.7202
X-2.2939Y-1.8526
X-2.2939Y-2.4157
X-2.2939Y-2.5375
X-2.2736Y-0.5684
X-2.2533Y-0.4263
X-2.2533Y-1.0759
X-2.2533Y-1.218
X-2.2526Y-2.3555
X-2.2127Y-1.8526
X-2.1924Y-1.7405
X-2.1924Y-2.3548
X-2.1721Y-0.4263
X-2.1721Y-1.0759
X-2.1315Y-1.7405
X-2.1315Y-1.8526
X-2.1112Y-0.1421
X-2.1112Y-0.7917
X-2.1112Y-1.4413
X-2.1112Y-2.3954
X-2.1008Y-1.9894
X-2.1008Y-2.0503
X-2.0706Y-0.2233
X-2.0706Y-0.8729
X-2.0706Y-1.5225
X-2.0706Y-1.9488
X-2.0706Y-2.5375
X-2.03Y-1.9082
X-2.03Y-2.0503
X-2.03Y-2.3954
X-2.0097Y-2.0097
X-1.9894Y-0.7714
X-1.9894Y-0.8932
X-1.9894Y-1.218
X-1.9894Y-1.4413
X-1.9894Y-1.5631
X-1.9894Y-1.8676
X-1.9691Y-1.9691
X-1.9488Y-0.4872
X-1.9285Y-1.9285
X-1.9082Y-0.1218
X-1.9082Y-0.7714
X-1.9082Y-0.8932
X-1.9082Y-1.1368
X-1.9082Y-1.4413
X-1.9082Y-1.5631
X-1.8879Y-1.8879
X-1.8473Y-0.1827
X-1.8473Y-1.8526
X-1.8327Y-1.4819
X-1.8067Y-0.0609
X-1.8067Y-0.5278
X-1.8067Y-0.7105
X-1.8067Y-1.3601
X-1.7864Y-1.1112
X-1.7864Y-1.1624
X-1.7864Y-1.7405
X-1.7864Y-1.8526
X-1.7661Y-0.0353
X-1.7458Y-0.6849
X-1.7458Y-1.3195
X-1.7255Y-2.1112
X-1.7255Y-2.3142
X-1.7052Y-1.7052
X-1.7052Y-1.8526
X-1.6726Y-1.0883
X-1.6637Y-1.7608
X-1.6364Y-1.1245
X-1.624Y-1.6443
X-1.624Y-1.8526
X-1.6037Y-0.3451
X-1.6037Y-0.9947
X-1.5834Y-1.7608
X-1.5428Y-1.6443
X-1.5428Y-1.8526
X-1.5225Y-0.3451
X-1.5225Y-0.9947
X-1.5225Y-2.1112
X-1.5225Y-2.3142
X-1.5022Y-1.7608
X-1.4616Y-0.0609
X-1.4616Y-1.8526
X-1.4591Y-0.708
X-1.4355Y-0.8138
X-1.4322Y-1.7608
X-1.429Y-1.4493
X-1.4007Y-0.1218
X-1.3804Y-1.8526
X-1.3398Y-0.0609
X-1.3398Y-0.7917
X-1.3398Y-0.8729
X-1.3398Y-1.1368
X-1.3398Y-1.4413
X-1.3398Y-1.5225
X-1.3201Y-1.9088
X-1.2992Y-0.5684
X-1.2928Y-1.8526
X-1.2736Y-1.2325
X-1.2586Y-0.7917
X-1.2586Y-0.8729
X-1.2586Y-1.4413
X-1.2586Y-1.5225
X-1.2586Y-1.6646
X-1.2377Y-1.9076
X-1.2063Y-2.03
X-1.1977Y-0.1571
X-1.1977Y-0.2233
X-1.1977Y-0.8729
X-1.1571Y-0.1421
X-1.1571Y-0.609
X-1.1571Y-0.7917
X-1.1571Y-1.2436
X-1.1571Y-1.4413
X-1.1571Y-1.7608
X-1.1571Y-1.8526
X-1.1472Y-2.03
X-1.1165Y-0.1165
X-1.0962Y-0.7661
X-1.0563Y-1.7608
X-1.0563Y-1.8526
X-1.0353Y-0.5278
X-1.0353Y-1.1774
X-1.0004Y-2.2127
X-0.9996Y-1.8323
X-0.9947Y-0.609
X-0.9947Y-1.218
X-0.9776Y-1.7576
X-0.9744Y-1.7052
X-0.9744Y-2.1721
X-0.9541Y-0.4466
X-0.9541Y-1.0759
X-0.9338Y-2.1465
X-0.9338Y-2.1977
X-0.9135Y-1.8323
X-0.8932Y-1.7661
X-0.8837Y-2.0206
X-0.8729Y-0.4466
X-0.8729Y-1.0759
X-0.8526Y-1.7052
X-0.8526Y-1.8323
X-0.8476Y-1.9844
X-0.827Y-1.7811
X-0.812Y-0.7917
X-0.812Y-1.4413
X-0.7714Y-0.2436
X-0.7511Y-0.8526
X-0.7511Y-1.4995
X-0.7366Y-2.1315
X-0.7308Y-0.203
X-0.6902Y-0.7917
X-0.6902Y-1.4413
X-0.6752Y-1.218
X-0.6752Y-1.624
X-0.6699Y-2.4104
X-0.6699Y-2.4616
X-0.6496Y-0.6496
X-0.6496Y-1.8323
X-0.6423Y-2.0788
X-0.6342Y-2.1871
X-0.624Y-1.3137
X-0.624Y-1.624
X-0.6037Y-2.045
X-0.5481Y-0.3045
X-0.5481Y-0.9541
X-0.5481Y-2.2383
X-0.5335Y-1.5887
X-0.5075Y-0.2233
X-0.5075Y-0.6752
X-0.5075Y-0.8729
X-0.5075Y-1.5225
X-0.4669Y-2.1871
X-0.4466Y-0.1977
X-0.4466Y-0.8473
X-0.4466Y-1.4969
X-0.406Y-0.609
X-0.406Y-1.2586
X-0.3654Y-0.6699
X-0.3654Y-1.3195
X-0.3654Y-2.2533
X-0.3451Y-1.7811
X-0.3451Y-1.8323
X-0.3248Y-2.1721
X-0.3045Y-0.5075
X-0.3045Y-1.1571
X-0.2639Y-2.1465
X-0.2233Y-0.5075
X-0.2233Y-1.1571
X-0.2233Y-1.7811
X-0.2233Y-1.8323
X0.0Y-2.4104
X0.0Y-2.4616
X0.0099Y-2.0152
X0.0154Y-2.2127
X0.0461Y-1.979
X0.0666Y-2.2127
T4
X-3.4528Y-0.2638
X-3.4528Y-0.3858
X-3.4528Y-0.9134
X-3.4528Y-1.0354
X-3.4528Y-1.563
X-3.4528Y-1.685
X-3.4528Y-2.2126
X-3.4528Y-2.3346
X-2.9843Y-0.4291
X-2.9843Y-1.0787
X-2.9843Y-1.7283
X-2.8622Y-0.4291
X-2.8622Y-1.0787
X-2.8622Y-1.7283
X-2.3346Y-0.3479
X-2.3346Y-0.9975
X-2.3346Y-1.6471
X-2.2126Y-0.3479
X-2.2126Y-0.9975
X-2.2126Y-1.6471
X-1.685Y-0.2667
X-1.685Y-0.9163
X-1.685Y-1.5659
X-1.563Y-0.2667
X-1.563Y-0.9163
X-1.563Y-1.5659
X-1.0354Y-0.3479
X-1.0354Y-0.9975
X-1.0354Y-1.6471
X-0.9134Y-0.3479
X-0.9134Y-0.9975
X-0.9134Y-1.6471
X-0.8527Y-2.378
X-0.7307Y-2.378
X-0.3858Y-0.4291
X-0.3858Y-1.0787
X-0.3858Y-1.7283
X-0.2638Y-0.4291
X-0.2638Y-1.0787
X-0.2638Y-1.7283
X-0.2031Y-2.378
X-0.0811Y-2.378
T2
G00X-2.8861Y-2.4136
M15
G01X-2.8861Y-2.4373
M16
G05
G00X-2.7168Y-2.4136
M15
G01X-2.7168Y-2.4373
M16
G05
T3
G00X-2.3347Y-1.9612
M15
G01X-2.3344Y-1.9612
M16
G05
G00X-2.3347Y-2.0612
M15
G01X-2.3344Y-2.0612
M16
G05
G00X-2.3347Y-2.1612
M15
G01X-2.3344Y-2.1612
M16
G05
G00X-2.3347Y-2.2612
M15
G01X-2.3344Y-2.2612
M16
G05
G00X-2.1926Y-1.9612
M15
G01X-2.1923Y-1.9612
M16
G05
G00X-2.1926Y-2.0612
M15
G01X-2.1923Y-2.0612
M16
G05
G00X-2.1926Y-2.1612
M15
G01X-2.1923Y-2.1612
M16
G05
G00X-2.1926Y-2.2612
M15
G01X-2.1923Y-2.2612
M16
G05
M30
