M48
; DRILL file {KiCad 9.0.7} date 2026-08-26T13:10:03+0900
; FORMAT={-:-/ absolute / inch / decimal}
; #@! TF.CreationDate,2026-08-26T13:10:03+09:00
; #@! TF.GenerationSoftware,Kicad,Pcbnew,9.0.7
; #@! TF.FileFunction,NonPlated,1,2,NPTH
FMAT,2
INCH
; #@! TA.AperFunction,NonPlated,NPTH,ComponentDrill
T1C0.0354
; #@! TA.AperFunction,NonPlated,NPTH,ComponentDrill
T2C0.0394
; #@! TA.AperFunction,NonPlated,NPTH,ComponentDrill
T3C0.0472
%
G90
G05
T1
X-2.3327Y-2.491
X-2.2146Y-2.491
T2
X-3.4803Y-0.5531
X-3.4803Y-1.2028
X-3.4803Y-1.8524
X-3.4803Y-2.502
X-3.1516Y-0.4331
X-3.1516Y-1.0827
X-3.1516Y-1.7323
X-2.502Y-0.3519
X-2.502Y-1.0015
X-2.502Y-1.6511
X-1.8524Y-0.2707
X-1.8524Y-0.9203
X-1.8524Y-1.5699
X-1.2028Y-0.3519
X-1.2028Y-1.0015
X-1.2028Y-1.6511
X-1.0201Y-2.3819
X-0.5531Y-0.4331
X-0.5531Y-1.0827
X-0.5531Y-1.7323
X-0.3704Y-2.3819
T3
X-3.4803Y-0.0965
X-3.4803Y-0.7461
X-3.4803Y-1.3957
X-3.4803Y-2.0453
X-2.6949Y-0.2165
X-2.6949Y-0.8661
X-2.6949Y-1.5157
X-2.0453Y-0.1353
X-2.0453Y-0.7849
X-2.0453Y-1.4345
X-1.3957Y-0.0541
X-1.3957Y-0.7037
X-1.3957Y-1.3533
X-0.7461Y-0.1353
X-0.7461Y-0.7849
X-0.7461Y-1.4345
X-0.5634Y-2.1654
X-0.0965Y-0.2165
X-0.0965Y-0.8661
X-0.0965Y-1.5157
X0.0862Y-2.1654
M30
